<?xml version="1.0" encoding="utf-8" ?>
<svg baseProfile="full" height="1024px" version="1.1" width="1024px" xmlns="http://www.w3.org/2000/svg" xmlns:ev="http://www.w3.org/2001/xml-events" xmlns:xlink="http://www.w3.org/1999/xlink"><defs /><path d="M 191,544 L 190,545 L 189,545 L 188,546 L 188,547 L 187,548 L 187,549 L 186,550 L 186,554 L 187,555 L 187,556 L 188,557 L 188,558 L 189,559 L 190,559 L 191,560 L 192,560 L 193,561 L 358,561 L 359,560 L 361,560 L 364,557 L 364,556 L 365,555 L 365,549 L 364,548 L 364,547 L 362,545 L 361,545 L 360,544" fill="white" /><path d="M 218,506 L 217,507 L 216,507 L 215,508 L 214,508 L 213,509 L 213,510 L 212,511 L 212,512 L 211,513 L 211,516 L 212,517 L 212,519 L 215,522 L 216,522 L 217,523 L 336,523 L 337,522 L 338,522 L 341,519 L 341,516 L 342,515 L 341,514 L 341,511 L 340,510 L 340,509 L 339,508 L 338,508 L 337,507 L 336,507 L 335,506" fill="white" /><path d="M 833,476 L 832,477 L 830,477 L 829,478 L 828,478 L 827,479 L 826,479 L 825,480 L 824,480 L 817,487 L 816,487 L 815,486 L 815,484 L 816,483 L 816,477 L 798,477 L 798,478 L 799,479 L 799,561 L 817,561 L 817,512 L 818,511 L 818,508 L 819,507 L 819,505 L 820,504 L 820,503 L 822,501 L 822,500 L 825,497 L 826,497 L 827,496 L 828,496 L 829,495 L 830,495 L 831,494 L 842,494 L 843,495 L 844,495 L 844,476" fill="white" /><path d="M 534,476 L 533,477 L 531,477 L 530,478 L 529,478 L 528,479 L 527,479 L 524,482 L 523,482 L 521,484 L 521,485 L 519,487 L 518,487 L 517,486 L 517,477 L 500,477 L 500,561 L 518,561 L 519,560 L 518,559 L 518,513 L 519,512 L 519,509 L 520,508 L 520,506 L 521,505 L 521,504 L 522,503 L 522,502 L 527,497 L 528,497 L 530,495 L 532,495 L 533,494 L 543,494 L 544,495 L 546,495 L 546,476" fill="white" /><path d="M 742,475 L 741,476 L 737,476 L 736,477 L 734,477 L 733,478 L 732,478 L 731,479 L 730,479 L 729,480 L 728,480 L 725,483 L 724,483 L 722,485 L 722,486 L 720,488 L 720,489 L 719,490 L 719,491 L 718,492 L 718,494 L 717,495 L 717,506 L 718,507 L 718,510 L 719,511 L 719,512 L 721,514 L 721,515 L 724,518 L 725,518 L 727,520 L 728,520 L 729,521 L 731,521 L 732,522 L 734,522 L 735,523 L 738,523 L 739,524 L 742,524 L 743,525 L 748,525 L 749,526 L 752,526 L 753,527 L 756,527 L 757,528 L 760,528 L 761,529 L 762,529 L 763,530 L 764,530 L 768,534 L 768,536 L 769,537 L 769,541 L 768,542 L 768,543 L 766,545 L 766,546 L 765,547 L 764,547 L 762,549 L 760,549 L 759,550 L 753,550 L 752,551 L 751,550 L 745,550 L 744,549 L 743,549 L 742,548 L 741,548 L 740,547 L 739,547 L 737,545 L 737,544 L 735,542 L 735,538 L 734,537 L 715,537 L 716,538 L 716,541 L 717,542 L 717,544 L 718,545 L 718,546 L 719,547 L 719,548 L 722,551 L 722,552 L 725,555 L 726,555 L 729,558 L 730,558 L 731,559 L 732,559 L 733,560 L 734,560 L 735,561 L 737,561 L 738,562 L 741,562 L 742,563 L 746,563 L 747,564 L 758,564 L 759,563 L 764,563 L 765,562 L 767,562 L 768,561 L 770,561 L 771,560 L 772,560 L 773,559 L 774,559 L 776,557 L 777,557 L 783,551 L 783,550 L 784,549 L 784,548 L 785,547 L 785,545 L 786,544 L 786,540 L 787,539 L 787,537 L 786,536 L 786,530 L 785,529 L 785,528 L 784,527 L 784,526 L 782,524 L 782,523 L 779,520 L 778,520 L 776,518 L 775,518 L 774,517 L 773,517 L 772,516 L 770,516 L 769,515 L 767,515 L 766,514 L 764,514 L 763,513 L 760,513 L 759,512 L 755,512 L 754,511 L 750,511 L 749,510 L 746,510 L 745,509 L 744,509 L 743,508 L 741,508 L 736,503 L 736,502 L 735,501 L 735,496 L 736,495 L 736,494 L 739,491 L 740,491 L 742,489 L 745,489 L 746,488 L 754,488 L 755,489 L 757,489 L 758,490 L 759,490 L 760,491 L 761,491 L 765,495 L 765,496 L 766,497 L 766,499 L 767,500 L 783,500 L 784,501 L 785,501 L 785,496 L 784,495 L 784,493 L 783,492 L 783,491 L 782,490 L 782,489 L 780,487 L 780,486 L 776,482 L 775,482 L 773,480 L 772,480 L 771,479 L 770,479 L 769,478 L 768,478 L 767,477 L 764,477 L 763,476 L 759,476 L 758,475" fill="white" /><path d="M 664,475 L 663,476 L 659,476 L 658,477 L 656,477 L 655,478 L 654,478 L 653,479 L 652,479 L 651,480 L 650,480 L 648,482 L 647,482 L 643,486 L 643,487 L 642,488 L 642,489 L 641,490 L 641,491 L 640,492 L 640,494 L 639,495 L 639,507 L 640,508 L 640,510 L 641,511 L 641,512 L 642,513 L 642,514 L 647,519 L 648,519 L 649,520 L 650,520 L 651,521 L 652,521 L 653,522 L 655,522 L 656,523 L 660,523 L 661,524 L 664,524 L 665,525 L 669,525 L 670,526 L 674,526 L 675,527 L 678,527 L 679,528 L 681,528 L 682,529 L 684,529 L 686,531 L 687,531 L 689,533 L 689,534 L 690,535 L 690,536 L 691,537 L 691,541 L 690,542 L 690,543 L 689,544 L 689,545 L 687,547 L 686,547 L 684,549 L 682,549 L 681,550 L 675,550 L 674,551 L 673,551 L 672,550 L 667,550 L 666,549 L 664,549 L 662,547 L 661,547 L 658,544 L 658,543 L 657,542 L 657,538 L 656,537 L 637,537 L 637,539 L 638,540 L 638,543 L 639,544 L 639,545 L 640,546 L 640,547 L 642,549 L 642,550 L 649,557 L 650,557 L 652,559 L 653,559 L 654,560 L 656,560 L 657,561 L 658,561 L 659,562 L 662,562 L 663,563 L 668,563 L 669,564 L 679,564 L 680,563 L 685,563 L 686,562 L 689,562 L 690,561 L 691,561 L 692,560 L 693,560 L 694,559 L 695,559 L 696,558 L 697,558 L 699,556 L 700,556 L 703,553 L 703,552 L 705,550 L 705,549 L 706,548 L 706,547 L 707,546 L 707,544 L 708,543 L 708,532 L 707,531 L 707,529 L 706,528 L 706,527 L 705,526 L 705,525 L 699,519 L 698,519 L 696,517 L 695,517 L 694,516 L 692,516 L 691,515 L 689,515 L 688,514 L 686,514 L 685,513 L 682,513 L 681,512 L 677,512 L 676,511 L 672,511 L 671,510 L 668,510 L 667,509 L 665,509 L 664,508 L 663,508 L 662,507 L 661,507 L 658,504 L 658,503 L 657,502 L 657,496 L 658,495 L 658,494 L 662,490 L 663,490 L 664,489 L 667,489 L 668,488 L 676,488 L 677,489 L 679,489 L 680,490 L 681,490 L 682,491 L 683,491 L 687,495 L 687,497 L 688,498 L 688,500 L 707,500 L 707,496 L 706,495 L 706,494 L 705,493 L 705,492 L 704,491 L 704,490 L 703,489 L 703,488 L 696,481 L 695,481 L 693,479 L 691,479 L 690,478 L 689,478 L 688,477 L 686,477 L 685,476 L 681,476 L 680,475" fill="white" /><path d="M 583,475 L 582,476 L 579,476 L 578,477 L 576,477 L 575,478 L 574,478 L 573,479 L 572,479 L 571,480 L 570,480 L 568,482 L 567,482 L 559,490 L 559,491 L 557,493 L 557,494 L 556,495 L 556,496 L 555,497 L 555,498 L 554,499 L 554,500 L 553,501 L 553,503 L 552,504 L 552,506 L 551,507 L 551,511 L 550,512 L 550,527 L 551,528 L 551,532 L 552,533 L 552,536 L 553,537 L 553,538 L 554,539 L 554,540 L 555,541 L 555,543 L 557,545 L 557,546 L 559,548 L 559,549 L 567,557 L 568,557 L 569,558 L 570,558 L 572,560 L 573,560 L 574,561 L 576,561 L 577,562 L 580,562 L 581,563 L 585,563 L 586,564 L 594,564 L 595,563 L 600,563 L 601,562 L 603,562 L 604,561 L 606,561 L 607,560 L 608,560 L 610,558 L 611,558 L 612,557 L 613,557 L 620,550 L 620,549 L 622,547 L 622,546 L 624,544 L 624,543 L 625,542 L 625,541 L 626,540 L 626,537 L 608,537 L 608,538 L 607,539 L 607,540 L 606,541 L 606,542 L 602,546 L 601,546 L 600,547 L 599,547 L 598,548 L 594,548 L 593,549 L 589,549 L 588,548 L 584,548 L 583,547 L 581,547 L 579,545 L 578,545 L 574,541 L 574,540 L 572,538 L 572,537 L 571,536 L 571,535 L 570,534 L 570,531 L 569,530 L 569,525 L 570,524 L 628,524 L 628,509 L 627,508 L 627,504 L 626,503 L 626,501 L 625,500 L 625,499 L 624,498 L 624,496 L 623,495 L 623,494 L 621,492 L 621,491 L 620,490 L 620,489 L 612,481 L 611,481 L 609,479 L 608,479 L 607,478 L 606,478 L 605,477 L 603,477 L 602,476 L 599,476 L 598,475" fill="white" /><path d="M 237,469 L 233,473 L 233,481 L 237,485 L 315,485 L 319,481 L 319,474 L 318,473 L 318,472 L 316,470 L 315,470 L 314,469" fill="white" /><path d="M 403,445 L 403,561 L 423,561 L 423,519 L 424,518 L 457,518 L 458,517 L 462,517 L 463,516 L 465,516 L 466,515 L 467,515 L 468,514 L 469,514 L 471,512 L 472,512 L 475,509 L 476,509 L 479,506 L 479,505 L 481,503 L 481,502 L 483,500 L 483,499 L 484,498 L 484,497 L 485,496 L 485,494 L 486,493 L 486,489 L 487,488 L 487,475 L 486,474 L 486,471 L 485,470 L 485,468 L 484,467 L 484,465 L 482,463 L 482,462 L 481,461 L 481,460 L 477,456 L 477,455 L 476,454 L 475,454 L 472,451 L 471,451 L 469,449 L 467,449 L 466,448 L 465,448 L 464,447 L 462,447 L 461,446 L 458,446 L 457,445" fill="white" /><path d="M 265,431 L 264,432 L 263,432 L 261,434 L 261,435 L 260,436 L 260,443 L 264,447 L 268,447 L 269,448 L 270,447 L 288,447 L 292,443 L 292,436 L 291,435 L 291,434 L 290,433 L 289,433 L 288,432 L 287,432 L 286,431" fill="white" /></svg>