<?xml version="1.0" encoding="UTF-8"?>
<!DOCTYPE svg PUBLIC "-//W3C//DTD SVG 1.1//EN" "http://www.w3.org/Graphics/SVG/1.1/DTD/svg11.dtd">
<svg xmlns="http://www.w3.org/2000/svg" version="1.1" width="670px" height="139px" style="shape-rendering:geometricPrecision; text-rendering:geometricPrecision; image-rendering:optimizeQuality; fill-rule:evenodd; clip-rule:evenodd" xmlns:xlink="http://www.w3.org/1999/xlink">
<g><path style="opacity:0.967" fill="#f2f2f2" d="M 82.5,4.5 C 89.8409,4.33368 97.1742,4.50034 104.5,5C 110.092,7.40245 111.925,11.5691 110,17.5C 108.833,18.6667 107.667,19.8333 106.5,21C 98.1667,21.6667 89.8333,21.6667 81.5,21C 77.2119,17.2288 76.3786,12.7288 79,7.5C 80.5185,6.83663 81.6851,5.83663 82.5,4.5 Z"/></g>
<g><path style="opacity:1" fill="#f7f7f7" d="M 220.5,18.5 C 240.213,18.0624 259.88,18.5624 279.5,20C 296.623,25.803 305.29,37.803 305.5,56C 305.001,70.8136 298.334,81.8136 285.5,89C 282.226,90.2023 278.893,91.2023 275.5,92C 264.172,92.4999 252.838,92.6665 241.5,92.5C 241.5,106.833 241.5,121.167 241.5,135.5C 234.5,135.5 227.5,135.5 220.5,135.5C 220.5,96.5 220.5,57.5 220.5,18.5 Z M 241.5,36.5 C 251.889,36.1302 262.223,36.6302 272.5,38C 280.889,41.2705 284.889,47.4372 284.5,56.5C 285.205,64.2813 282.205,70.1147 275.5,74C 264.244,75.4334 252.91,75.9334 241.5,75.5C 241.5,62.5 241.5,49.5 241.5,36.5 Z"/></g>
<g><path style="opacity:1" fill="#f9f9f9" d="M 55.5,42.5 C 81.1688,42.3334 106.835,42.5 132.5,43C 137.609,46.3662 138.776,50.8662 136,56.5C 135.097,57.7014 133.931,58.5348 132.5,59C 106.833,59.6667 81.1667,59.6667 55.5,59C 50.8451,56.1034 49.3451,51.9367 51,46.5C 52.3968,44.9297 53.8968,43.5964 55.5,42.5 Z"/></g>
<g><path style="opacity:1" fill="#f3f3f3" d="M 411.5,138.5 C 409.167,138.5 406.833,138.5 404.5,138.5C 380.499,133.645 368.165,118.811 367.5,94C 369.278,62.8815 385.611,47.8815 416.5,49C 433.342,53.8499 443.175,65.0165 446,82.5C 446.499,87.8229 446.666,93.1563 446.5,98.5C 426.497,98.3334 406.497,98.5 386.5,99C 390.009,119.201 401.342,125.867 420.5,119C 422.787,116.93 424.453,114.43 425.5,111.5C 431.798,110.504 438.132,110.17 444.5,110.5C 439.602,127.067 428.602,136.401 411.5,138.5 Z M 403.5,64.5 C 417.909,63.5819 425.909,70.2485 427.5,84.5C 414.167,84.5 400.833,84.5 387.5,84.5C 388.131,73.8862 393.465,67.2195 403.5,64.5 Z"/></g>
<g><path style="opacity:1" fill="#f4f4f4" d="M 650.5,49.5 C 654.5,49.5 658.5,49.5 662.5,49.5C 662.83,56.1998 662.497,62.8665 661.5,69.5C 653.312,66.9955 646.145,68.6622 640,74.5C 638.725,76.7173 637.725,79.0506 637,81.5C 635.554,99.4444 635.054,117.444 635.5,135.5C 629.167,135.5 622.833,135.5 616.5,135.5C 616.828,107.259 616.495,79.0927 615.5,51C 621.825,50.5005 628.158,50.3338 634.5,50.5C 631.907,60.9211 633.907,62.4211 640.5,55C 643.767,52.8703 647.1,51.037 650.5,49.5 Z"/></g>
<g><path style="opacity:1" fill="#f0eff0" d="M 352.5,49.5 C 356.5,49.5 360.5,49.5 364.5,49.5C 364.5,56.1667 364.5,62.8333 364.5,69.5C 349.208,65.3914 340.041,71.0581 337,86.5C 336.5,102.83 336.333,119.163 336.5,135.5C 330.167,135.5 323.833,135.5 317.5,135.5C 317.5,107.167 317.5,78.8333 317.5,50.5C 323.5,50.5 329.5,50.5 335.5,50.5C 335.18,53.8984 335.513,57.2317 336.5,60.5C 340.888,55.3178 346.221,51.6511 352.5,49.5 Z"/></g>
<g><path style="opacity:0.96" fill="#f0f0f0" d="M 596.5,129.5 C 594.287,131.86 591.621,133.694 588.5,135C 584.081,136.352 579.748,137.519 575.5,138.5C 572.167,138.5 568.833,138.5 565.5,138.5C 548.57,136.399 537.57,127.233 532.5,111C 539.192,110.169 545.858,110.336 552.5,111.5C 553.175,117.674 556.509,121.507 562.5,123C 570.229,125.187 577.396,124.02 584,119.5C 588.164,111.993 586.331,106.493 578.5,103C 569.891,100.745 561.225,98.745 552.5,97C 538.105,92.9083 532.271,83.4083 535,68.5C 539.252,57.2637 547.418,50.7637 559.5,49C 572.661,46.8304 584.661,49.4971 595.5,57C 600.473,61.7787 603.139,67.6121 603.5,74.5C 597.158,74.6662 590.825,74.4995 584.5,74C 581.766,66.3699 576.266,62.5366 568,62.5C 557.84,61.9919 553.174,66.6585 554,76.5C 555.167,78.3333 556.667,79.8333 558.5,81C 569.155,83.9993 579.822,86.9993 590.5,90C 602.612,95.7287 607.112,105.229 604,118.5C 602.477,122.893 599.977,126.56 596.5,129.5 Z"/></g>
<g><path style="opacity:1" fill="#f7f7f7" d="M 596.5,129.5 C 595.844,128.722 595.011,128.056 594,127.5C 592.349,128.742 590.515,129.576 588.5,130C 587.874,130.75 587.374,131.584 587,132.5C 584.849,129.888 584.015,129.888 584.5,132.5C 584,132.833 583.5,133.167 583,133.5C 574.497,134.124 565.83,134.124 557,133.5C 555.333,132.167 553.667,130.833 552,129.5C 551.667,129.833 551.333,130.167 551,130.5C 549.686,129.687 548.519,128.687 547.5,127.5C 546.914,127.709 546.414,128.043 546,128.5C 545.209,126.396 543.709,125.063 541.5,124.5C 542.04,123.252 542.707,122.085 543.5,121C 538.904,119.87 537.238,117.537 538.5,114C 541.571,113.853 544.404,113.02 547,111.5C 549.006,114.127 551.006,117.46 553,121.5C 554.011,122.337 555.178,122.67 556.5,122.5C 556.36,124.124 557.027,125.29 558.5,126C 562.407,126.677 566.241,127.51 570,128.5C 573.45,127.617 576.95,126.784 580.5,126C 582.762,125.299 583.762,124.132 583.5,122.5C 584.086,122.709 584.586,123.043 585,123.5C 586.861,121.112 588.194,118.446 589,115.5C 589.92,115.07 590.753,114.736 591.5,114.5C 590.624,113.749 589.624,113.249 588.5,113C 589.578,108.854 588.245,105.02 584.5,101.5C 583.914,101.709 583.414,102.043 583,102.5C 579.544,99.4643 575.544,97.4643 571,96.5C 569.602,97.0509 568.268,97.3842 567,97.5C 566.626,96.5838 566.126,95.7504 565.5,95C 562.133,94.2004 558.966,93.0337 556,91.5C 555.581,92.6721 554.915,93.6721 554,94.5C 551.443,92.8107 548.609,91.644 545.5,91C 546.654,90.0862 546.487,89.2529 545,88.5C 544.667,88.8333 544.333,89.1667 544,89.5C 543.659,86.8132 542.326,84.8132 540,83.5C 539.807,80.5774 538.974,77.7441 537.5,75C 538.979,70.5417 540.313,66.0417 541.5,61.5C 543.124,61.3601 544.29,62.0267 545,63.5C 545.251,61.567 545.751,59.7337 546.5,58C 548.126,58.1953 549.793,58.1953 551.5,58C 550.833,57.3333 550.167,56.6667 549.5,56C 553.659,54.0025 557.992,52.5025 562.5,51.5C 565.046,52.6563 567.546,53.6563 570,54.5C 570.519,53.4844 571.353,52.8178 572.5,52.5C 574.105,53.4303 575.605,53.4303 577,52.5C 580.984,53.435 585.151,54.7684 589.5,56.5C 590.519,57.6872 591.686,58.6872 593,59.5C 593.617,60.4491 593.451,61.2825 592.5,62C 595.943,62.2213 596.276,63.2213 593.5,65C 596.725,65.8017 599.392,67.4684 601.5,70C 600.975,70.6924 600.308,71.1924 599.5,71.5C 597.506,69.0834 595.673,69.0834 594,71.5C 593,70.1667 592,70.1667 591,71.5C 588.213,70.1561 585.713,68.3227 583.5,66C 585.283,64.9335 585.783,63.4335 585,61.5C 584.612,62.428 583.945,63.0946 583,63.5C 579.706,61.6836 576.373,60.0169 573,58.5C 570.766,58.3737 568.432,58.7071 566,59.5C 564.488,58.7433 563.154,57.7433 562,56.5C 562.148,57.825 561.982,58.9916 561.5,60C 559.77,61.8524 558.604,61.6857 558,59.5C 557.5,60.6667 556.667,61.5 555.5,62C 556.167,62.3333 556.833,62.6667 557.5,63C 552.309,64.4264 549.309,67.9264 548.5,73.5C 550.953,80.4473 555.12,84.7806 561,86.5C 562.016,85.3659 562.683,85.6992 563,87.5C 565.089,87.2549 567.089,87.2549 569,87.5C 569.489,89.6044 570.655,89.9378 572.5,88.5C 574.405,89.065 576.071,90.065 577.5,91.5C 578.167,91.1667 578.833,90.8333 579.5,90.5C 586.015,91.903 591.849,94.5697 597,98.5C 598,99.8333 599,101.167 600,102.5C 600.684,103.784 600.517,104.951 599.5,106C 600.167,107.333 601.167,108.333 602.5,109C 601.233,110.796 601.233,112.629 602.5,114.5C 600.435,118.592 598.101,122.425 595.5,126C 596.337,127.011 596.67,128.178 596.5,129.5 Z"/></g>
<g><path style="opacity:1" fill="#ebebec" d="M 35.5,79.5 C 74.8347,79.3333 114.168,79.5 153.5,80C 157.833,81.1612 159.833,83.9946 159.5,88.5C 159.751,92.5029 158.084,95.3362 154.5,97C 114.5,97.6667 74.5,97.6667 34.5,97C 26.5611,90.7059 26.8944,84.8725 35.5,79.5 Z"/></g>
<g><path style="opacity:1" fill="#eeeeee" d="M 8.5,117.5 C 65.1676,117.333 121.834,117.5 178.5,118C 183.442,121.466 184.609,125.966 182,131.5C 180.2,133.317 178.034,134.484 175.5,135C 120.833,135.667 66.1667,135.667 11.5,135C 6.39352,133.983 3.72686,130.817 3.5,125.5C 4.17666,122.133 5.84333,119.466 8.5,117.5 Z"/></g>
<g><path style="opacity:1" fill="#f4f4f4" d="M 496.5,138.5 C 493.5,138.5 490.5,138.5 487.5,138.5C 475.265,137.129 465.431,131.462 458,121.5C 456.06,118.072 454.894,114.406 454.5,110.5C 461.175,110.334 467.842,110.5 474.5,111C 474.922,117.422 478.255,121.422 484.5,123C 492.229,125.187 499.396,124.02 506,119.5C 509.926,113.122 508.759,107.956 502.5,104C 491.167,101 479.833,98 468.5,95C 458.101,89.1686 454.268,80.3353 457,68.5C 461.168,57.1451 469.335,50.6451 481.5,49C 496.433,46.2252 509.266,50.0586 520,60.5C 523.23,64.625 525.063,69.2917 525.5,74.5C 518.833,74.5 512.167,74.5 505.5,74.5C 505.411,71.0609 504.078,68.2276 501.5,66C 492.888,60.9143 484.721,61.4143 477,67.5C 473.775,74.3157 475.608,79.149 482.5,82C 493.351,84.3792 504.018,87.3792 514.5,91C 525.529,98.0843 529.029,107.918 525,120.5C 521.895,127.48 516.729,132.314 509.5,135C 505.14,136.583 500.806,137.75 496.5,138.5 Z"/></g>
</svg>
